<svg width="1600" height="980" viewBox="0 0 1600 980" fill="none" xmlns="http://www.w3.org/2000/svg">
  <rect width="1600" height="980" fill="#EAF0FA"/>
  <rect x="84" y="92" width="1432" height="796" rx="26" fill="#313B4C"/>
  <rect x="134" y="144" width="1332" height="694" rx="18" fill="#F7F9FD"/>
  <rect x="212" y="212" width="1176" height="118" rx="22" fill="#FFFFFF"/>
  <rect x="260" y="252" width="170" height="18" rx="9" fill="#4724F0"/>
  <rect x="260" y="290" width="282" height="12" rx="6" fill="#C5D0E5"/>
  <path d="M792 516C856 446 910 398 966 404C1022 410 1064 478 1120 490C1176 502 1230 458 1290 386" stroke="#80B5A4" stroke-width="18" stroke-linecap="round"/>
  <path d="M216 552C310 496 396 428 474 434C552 440 616 538 690 540C764 542 820 448 884 446" stroke="#A7D3C6" stroke-width="18" stroke-linecap="round"/>
  <circle cx="474" cy="434" r="18" fill="#FF5C00"/>
  <circle cx="884" cy="446" r="18" fill="#4724F0"/>
  <circle cx="1290" cy="386" r="18" fill="#0F3C63"/>
  <rect x="212" y="646" width="330" height="136" rx="24" fill="#FFFFFF"/>
  <rect x="590" y="646" width="330" height="136" rx="24" fill="#FFFFFF"/>
  <rect x="968" y="646" width="330" height="136" rx="24" fill="#FFFFFF"/>
  <rect x="260" y="696" width="122" height="14" rx="7" fill="#0F3C63"/>
  <rect x="260" y="732" width="180" height="12" rx="6" fill="#C5D0E5"/>
  <rect x="638" y="696" width="122" height="14" rx="7" fill="#4724F0"/>
  <rect x="638" y="732" width="180" height="12" rx="6" fill="#C5D0E5"/>
  <rect x="1016" y="696" width="122" height="14" rx="7" fill="#FF5C00"/>
  <rect x="1016" y="732" width="180" height="12" rx="6" fill="#C5D0E5"/>
</svg>
