<svg width="1600" height="980" viewBox="0 0 1600 980" fill="none" xmlns="http://www.w3.org/2000/svg">
  <rect width="1600" height="980" fill="#EEF2FB"/>
  <rect x="120" y="86" width="1360" height="808" fill="#F4F7FC"/>
  <rect x="166" y="132" width="1268" height="716" fill="#E4EAF6"/>
  <rect x="528" y="252" width="572" height="384" rx="16" fill="#0F1728"/>
  <rect x="560" y="286" width="508" height="286" rx="8" fill="#1B2638"/>
  <rect x="596" y="332" width="152" height="12" rx="6" fill="#4B2BF1"/>
  <rect x="596" y="362" width="236" height="10" rx="5" fill="#6B7E9F"/>
  <rect x="596" y="424" width="208" height="132" rx="14" fill="#24364F"/>
  <rect x="832" y="424" width="198" height="132" rx="14" fill="#2B3E5A"/>
  <rect x="606" y="690" width="420" height="56" rx="28" fill="#DDE5F3"/>
  <rect x="420" y="746" width="792" height="20" rx="10" fill="#C7D1E5"/>
  <rect x="252" y="258" width="132" height="278" rx="20" fill="#FFFFFF"/>
  <rect x="1218" y="208" width="112" height="402" rx="28" fill="#FFFFFF"/>
  <circle cx="292" cy="714" r="36" fill="#FFFFFF"/>
  <rect x="1148" y="672" width="118" height="118" rx="28" fill="#FFFFFF"/>
  <rect x="1166" y="710" width="82" height="14" rx="7" fill="#FF5C00"/>
  <rect x="1166" y="742" width="64" height="10" rx="5" fill="#C7D1E5"/>
</svg>
