<svg width="1600" height="980" viewBox="0 0 1600 980" fill="none" xmlns="http://www.w3.org/2000/svg">
  <rect width="1600" height="980" fill="#E7ECF7"/>
  <rect x="110" y="84" width="1380" height="812" fill="#111928"/>
  <rect x="110" y="84" width="1380" height="812" fill="url(#paint0_linear_1_1)" fill-opacity="0.18"/>
  <circle cx="326" cy="334" r="162" fill="#24324E"/>
  <rect x="276" y="430" width="118" height="228" rx="58" fill="#E3B58A"/>
  <rect x="200" y="486" width="240" height="182" rx="24" fill="#42679C"/>
  <rect x="596" y="264" width="562" height="372" rx="16" fill="#CBD6E9"/>
  <rect x="640" y="304" width="474" height="226" rx="8" fill="#0F3C63"/>
  <rect x="640" y="548" width="192" height="18" rx="9" fill="#8FA3C6"/>
  <rect x="640" y="584" width="140" height="14" rx="7" fill="#8FA3C6"/>
  <rect x="580" y="648" width="232" height="102" rx="16" fill="#4B2BF1"/>
  <rect x="840" y="694" width="196" height="56" rx="14" fill="#F4F7FC"/>
  <rect x="1068" y="672" width="176" height="78" rx="18" fill="#1E2A40"/>
  <rect x="1232" y="190" width="134" height="478" rx="24" fill="#202B3F"/>
  <defs>
    <linearGradient id="paint0_linear_1_1" x1="110" y1="84" x2="1490" y2="896" gradientUnits="userSpaceOnUse">
      <stop stop-color="#4B2BF1"/>
      <stop offset="1" stop-color="#FF5C00"/>
    </linearGradient>
  </defs>
</svg>
