<svg width="1600" height="1100" viewBox="0 0 1600 1100" fill="none" xmlns="http://www.w3.org/2000/svg">
  <rect width="1600" height="1100" fill="#EEF2FB"/>
  <rect x="82" y="72" width="1436" height="956" fill="#FFFFFF"/>
  <rect x="136" y="128" width="1328" height="844" fill="#F4F7FC"/>
  <rect x="194" y="184" width="1212" height="730" fill="#E8EDF7"/>
  <rect x="194" y="184" width="476" height="730" fill="#0F3C63"/>
  <rect x="722" y="238" width="630" height="180" fill="#FFFFFF"/>
  <rect x="776" y="290" width="176" height="16" rx="8" fill="#4724F0"/>
  <rect x="776" y="326" width="296" height="12" rx="6" fill="#C7D1E4"/>
  <rect x="248" y="246" width="182" height="182" fill="#FFFFFF"/>
  <rect x="470" y="246" width="146" height="182" fill="#FF5C00"/>
  <rect x="248" y="470" width="368" height="128" fill="#FFFFFF"/>
  <rect x="248" y="640" width="298" height="204" fill="#4724F0"/>
  <rect x="590" y="640" width="264" height="204" fill="#FFFFFF"/>
  <rect x="722" y="472" width="292" height="372" fill="#FFFFFF"/>
  <rect x="1058" y="472" width="294" height="372" fill="#0F3C63"/>
  <rect x="786" y="540" width="164" height="16" rx="8" fill="#FF5C00"/>
  <rect x="786" y="578" width="170" height="12" rx="6" fill="#C7D1E4"/>
  <rect x="786" y="610" width="120" height="12" rx="6" fill="#C7D1E4"/>
  <rect x="1118" y="530" width="174" height="174" fill="#FFFFFF"/>
  <rect x="1120" y="744" width="170" height="18" rx="9" fill="#FFFFFF"/>
  <rect x="1120" y="782" width="142" height="12" rx="6" fill="#6E8AB4"/>
</svg>
