<svg width="1600" height="1100" viewBox="0 0 1600 1100" fill="none" xmlns="http://www.w3.org/2000/svg">
  <rect width="1600" height="1100" fill="#EDF1F8"/>
  <rect x="84" y="74" width="1432" height="952" fill="#FFFFFF"/>
  <rect x="140" y="132" width="1320" height="836" fill="#F3F6FB"/>
  <rect x="198" y="190" width="1204" height="720" fill="#FFFFFF"/>
  <rect x="198" y="190" width="316" height="720" fill="#FF5C00"/>
  <rect x="560" y="246" width="786" height="144" fill="#0F3C63"/>
  <rect x="618" y="300" width="178" height="16" rx="8" fill="#FFFFFF"/>
  <rect x="618" y="334" width="328" height="12" rx="6" fill="#7F99BE"/>
  <rect x="560" y="436" width="246" height="414" fill="#4724F0"/>
  <rect x="850" y="436" width="238" height="414" fill="#EEF2FB"/>
  <rect x="1132" y="436" width="214" height="414" fill="#FFFFFF"/>
  <rect x="258" y="250" width="198" height="198" fill="#FFFFFF"/>
  <rect x="258" y="496" width="198" height="296" fill="#0F3C63"/>
  <rect x="916" y="516" width="106" height="16" rx="8" fill="#0F3C63"/>
  <rect x="916" y="550" width="118" height="12" rx="6" fill="#C6D0E4"/>
  <rect x="1192" y="516" width="104" height="16" rx="8" fill="#FF5C00"/>
  <rect x="1192" y="550" width="88" height="12" rx="6" fill="#C6D0E4"/>
</svg>
