<svg width="1600" height="1100" viewBox="0 0 1600 1100" fill="none" xmlns="http://www.w3.org/2000/svg">
  <rect width="1600" height="1100" fill="#EEF2FB"/>
  <rect x="80" y="72" width="1440" height="956" fill="#FFFFFF"/>
  <rect x="138" y="130" width="1324" height="840" fill="#F4F7FC"/>
  <rect x="196" y="188" width="1210" height="724" fill="#E7EDF8"/>
  <rect x="196" y="188" width="708" height="724" fill="#0F3C63"/>
  <rect x="960" y="244" width="388" height="178" fill="#FFFFFF"/>
  <rect x="1018" y="298" width="156" height="16" rx="8" fill="#4724F0"/>
  <rect x="1018" y="334" width="230" height="12" rx="6" fill="#C7D1E4"/>
  <rect x="258" y="250" width="286" height="248" fill="#FFFFFF"/>
  <rect x="586" y="250" width="256" height="248" fill="#FF5C00"/>
  <rect x="258" y="550" width="584" height="302" fill="#4724F0"/>
  <rect x="960" y="476" width="388" height="376" fill="#FFFFFF"/>
  <rect x="1022" y="546" width="118" height="16" rx="8" fill="#0F3C63"/>
  <rect x="1022" y="582" width="190" height="12" rx="6" fill="#C7D1E4"/>
  <rect x="1022" y="706" width="264" height="88" fill="#EEF2FB"/>
  <rect x="1090" y="646" width="128" height="28" rx="14" fill="#FF5C00"/>
</svg>
