<svg width="1600" height="1080" viewBox="0 0 1600 1080" fill="none" xmlns="http://www.w3.org/2000/svg">
  <rect width="1600" height="1080" fill="#EDF1F8"/>
  <rect x="72" y="62" width="1456" height="956" fill="#FFFFFF"/>
  <rect x="126" y="118" width="1348" height="844" fill="#F3F6FB"/>

  <rect x="184" y="192" width="496" height="640" rx="34" fill="#FFFFFF"/>
  <rect x="232" y="244" width="400" height="76" rx="20" fill="#0F3C63"/>
  <rect x="272" y="274" width="126" height="12" rx="6" fill="#FFFFFF"/>
  <rect x="430" y="274" width="118" height="12" rx="6" fill="#6B88B4"/>

  <rect x="232" y="364" width="62" height="356" rx="18" fill="#D7DEEC"/>
  <rect x="316" y="464" width="62" height="256" rx="18" fill="#C6D0E5"/>
  <rect x="400" y="398" width="62" height="322" rx="18" fill="#B7C5E0"/>
  <rect x="484" y="312" width="62" height="408" rx="18" fill="#FF5C00"/>
  <rect x="568" y="250" width="62" height="470" rx="18" fill="#4724F0"/>

  <path d="M256 756C354 714 430 676 520 594C566 552 608 498 646 436" stroke="#0F3C63" stroke-width="14" stroke-linecap="round"/>
  <path d="M616 438L646 436L632 466" stroke="#0F3C63" stroke-width="14" stroke-linecap="round" stroke-linejoin="round"/>

  <rect x="760" y="214" width="614" height="172" rx="28" fill="#FFFFFF"/>
  <rect x="804" y="262" width="142" height="12" rx="6" fill="#4724F0"/>
  <rect x="804" y="290" width="274" height="10" rx="5" fill="#C6D0E5"/>
  <rect x="804" y="330" width="526" height="18" rx="9" fill="#EEF2FB"/>
  <rect x="804" y="330" width="448" height="18" rx="9" fill="#FF5C00"/>

  <rect x="760" y="430" width="292" height="328" rx="28" fill="#FFFFFF"/>
  <rect x="808" y="486" width="196" height="20" rx="10" fill="#E7ECF6"/>
  <rect x="808" y="526" width="148" height="20" rx="10" fill="#E7ECF6"/>
  <rect x="808" y="586" width="196" height="108" rx="22" fill="#0F3C63"/>
  <circle cx="906" cy="640" r="32" fill="#FF5C00"/>

  <rect x="1082" y="430" width="292" height="328" rx="28" fill="#FFFFFF"/>
  <rect x="1130" y="486" width="196" height="20" rx="10" fill="#E7ECF6"/>
  <rect x="1130" y="526" width="148" height="20" rx="10" fill="#E7ECF6"/>
  <rect x="1130" y="586" width="196" height="108" rx="22" fill="#4724F0"/>
  <circle cx="1228" cy="640" r="32" fill="#FFFFFF"/>
</svg>
